<svg width="22" height="22" viewBox="0 0 22 22" fill="none" xmlns="http://www.w3.org/2000/svg">
<path d="M21.6943 18.2938L18.5926 21.3707C18.1347 21.8402 17.5278 21.9993 16.9368 22C14.323 21.9217 11.8523 20.6378 9.82377 19.3194C6.49404 16.897 3.43886 13.8934 1.52138 10.2636C0.785953 8.7415 -0.07696 6.79943 0.00548497 5.1005C0.0128366 4.4614 0.18506 3.83416 0.635162 3.42221L3.7369 0.322022C4.38099 -0.225833 5.00387 -0.0364126 5.41604 0.601734L7.9114 5.3336C8.17405 5.89418 8.02339 6.49482 7.63153 6.89538L6.48878 8.03755C6.41823 8.13419 6.37331 8.24419 6.37217 8.3639C6.81038 10.0601 8.13791 11.6236 9.31066 12.6995C10.4834 13.7754 11.744 15.2331 13.3802 15.5782C13.5825 15.6346 13.8302 15.6544 13.9749 15.5199L15.3043 14.168C15.7625 13.8206 16.4242 13.6509 16.9134 13.9349H16.9367L21.4378 16.5922C22.0985 17.0063 22.1674 17.8068 21.6943 18.2938Z" fill="white"/>
</svg>
